<?xml version="1.0" encoding="UTF-8"?>
<svg width="977px" height="374px" viewBox="0 0 977 374" version="1.1" xmlns="http://www.w3.org/2000/svg" xmlns:xlink="http://www.w3.org/1999/xlink">
    <!-- Generator: Sketch 53.2 (72643) - https://sketchapp.com -->
    <title>poster-egg</title>
    <desc>Created with Sketch.</desc>
    <defs>
        <path d="M204.129523,144.847734 C204.156825,202.46581 169.592618,236.193473 125.374622,236.172529 C81.1566266,236.151585 44.0273175,202.389964 44.0000151,144.771888 C43.9727132,87.154966 81.0577568,27.5005418 125.275752,27.5214857 C169.493748,27.5424297 204.102221,87.2308117 204.129523,144.847734" id="path-1"></path>
    </defs>
    <g id="poster-egg" stroke="none" stroke-width="1" fill="none" fill-rule="evenodd">
        <g id="Group-2" transform="translate(408.000000, 142.000000)" fill-rule="nonzero">
            <path d="M0,78.72 L0,0.24 L26.4,0.24 C43.56,0.24 56.28,6.24 56.28,24.48 C56.28,41.88 43.32,49.92 26.4,49.92 L13.92,49.92 L13.92,78.72 L0,78.72 Z M13.92,38.76 L25.32,38.76 C36.96,38.76 42.6,34.08 42.6,24.48 C42.6,14.64 36.72,11.4 25.32,11.4 L13.92,11.4 L13.92,38.76 Z M63.36,49.32 C63.36,29.64 76.68,18.36 91.32,18.36 C106.08,18.36 119.4,29.64 119.4,49.32 C119.4,68.88 106.08,80.16 91.32,80.16 C76.68,80.16 63.36,68.88 63.36,49.32 Z M77.52,49.32 C77.52,61.08 82.68,68.88 91.32,68.88 C99.96,68.88 105.24,61.08 105.24,49.32 C105.24,37.44 99.96,29.64 91.32,29.64 C82.68,29.64 77.52,37.44 77.52,49.32 Z M126.72,72 L133.2,63.12 C138.48,67.2 143.52,69.72 149.52,69.72 C155.88,69.72 158.88,66.72 158.88,62.64 C158.88,57.72 152.52,55.56 146.28,53.16 C138.48,50.28 129.72,45.84 129.72,36 C129.72,25.68 138,18.36 151.2,18.36 C159.36,18.36 165.96,21.72 170.76,25.44 L164.4,33.84 C160.32,30.84 156.12,28.8 151.44,28.8 C145.56,28.8 142.8,31.56 142.8,35.28 C142.8,39.96 148.68,41.76 155.04,44.04 C163.08,47.04 171.96,50.88 171.96,61.92 C171.96,72 163.92,80.16 149.04,80.16 C141,80.16 132.48,76.68 126.72,72 Z M186.36,58.8 L186.36,30.72 L177.96,30.72 L177.96,20.4 L187.08,19.8 L188.76,3.72 L200.28,3.72 L200.28,19.8 L215.28,19.8 L215.28,30.72 L200.28,30.72 L200.28,58.8 C200.28,65.76 202.92,69.12 208.56,69.12 C210.6,69.12 213,68.52 214.68,67.8 L217.08,78 C213.84,79.08 209.76,80.16 205.08,80.16 C191.4,80.16 186.36,71.52 186.36,58.8 Z M222.6,49.32 C222.6,30.12 235.92,18.36 249.72,18.36 C265.68,18.36 274.08,29.88 274.08,46.32 C274.08,48.96 273.84,51.36 273.48,52.8 L236.04,52.8 C237.24,63.48 243.96,69.48 253.44,69.48 C258.48,69.48 262.8,67.92 267.12,65.16 L271.8,73.8 C266.16,77.52 259.08,80.16 251.64,80.16 C235.32,80.16 222.6,68.76 222.6,49.32 Z M235.92,44.04 L262.08,44.04 C262.08,34.68 258.12,29.04 250.08,29.04 C243.12,29.04 237.12,34.2 235.92,44.04 Z M287.28,78.72 L287.28,19.8 L298.68,19.8 L299.64,30.24 L300.12,30.24 C304.32,22.56 310.56,18.36 316.8,18.36 C319.8,18.36 321.72,18.72 323.52,19.56 L321.12,31.56 C319.08,30.96 317.52,30.6 315,30.6 C310.32,30.6 304.68,33.84 301.08,42.72 L301.08,78.72 L287.28,78.72 Z" id="Poster" fill="#35495E"></path>
            <path d="M352.38,78.72 L352.38,-4.26325641e-14 L397.74,-4.26325641e-14 L397.74,8.4 L362.34,8.4 L362.34,33.12 L392.22,33.12 L392.22,41.64 L362.34,41.64 L362.34,70.2 L398.94,70.2 L398.94,78.72 L352.38,78.72 Z M418.86,88.56 C418.86,94.8 425.22,98.76 435.78,98.76 C446.94,98.76 454.26,93 454.26,86.88 C454.26,81.48 450.06,79.68 442.5,79.68 L432.42,79.68 C430.14,79.68 427.38,79.44 424.86,78.72 C420.66,81.72 418.86,85.2 418.86,88.56 Z M410.22,89.88 C410.22,84.96 413.46,80.28 418.74,76.68 L418.74,76.2 C415.86,74.4 413.58,71.28 413.58,66.72 C413.58,61.8 416.94,57.96 419.94,55.92 L419.94,55.44 C416.1,52.32 412.38,46.68 412.38,39.72 C412.38,27 422.46,18.96 434.34,18.96 C437.58,18.96 440.46,19.56 442.62,20.4 L462.9,20.4 L462.9,27.96 L450.9,27.96 C453.66,30.6 455.7,35.04 455.7,39.96 C455.7,52.44 446.22,60.24 434.34,60.24 C431.46,60.24 428.22,59.52 425.58,58.2 C423.54,60 421.86,61.92 421.86,65.16 C421.86,68.88 424.26,71.52 432.18,71.52 L443.46,71.52 C457.02,71.52 463.86,75.72 463.86,85.44 C463.86,96.24 452.46,105.6 434.34,105.6 C420.06,105.6 410.22,99.96 410.22,89.88 Z M434.34,53.64 C441.06,53.64 446.7,48.24 446.7,39.72 C446.7,31.2 441.18,26.16 434.34,26.16 C427.5,26.16 421.98,31.2 421.98,39.72 C421.98,48.24 427.62,53.64 434.34,53.64 Z M479.34,88.56 C479.34,94.8 485.7,98.76 496.26,98.76 C507.42,98.76 514.74,93 514.74,86.88 C514.74,81.48 510.54,79.68 502.98,79.68 L492.9,79.68 C490.62,79.68 487.86,79.44 485.34,78.72 C481.14,81.72 479.34,85.2 479.34,88.56 Z M470.7,89.88 C470.7,84.96 473.94,80.28 479.22,76.68 L479.22,76.2 C476.34,74.4 474.06,71.28 474.06,66.72 C474.06,61.8 477.42,57.96 480.42,55.92 L480.42,55.44 C476.58,52.32 472.86,46.68 472.86,39.72 C472.86,27 482.94,18.96 494.82,18.96 C498.06,18.96 500.94,19.56 503.1,20.4 L523.38,20.4 L523.38,27.96 L511.38,27.96 C514.14,30.6 516.18,35.04 516.18,39.96 C516.18,52.44 506.7,60.24 494.82,60.24 C491.94,60.24 488.7,59.52 486.06,58.2 C484.02,60 482.34,61.92 482.34,65.16 C482.34,68.88 484.74,71.52 492.66,71.52 L503.94,71.52 C517.5,71.52 524.34,75.72 524.34,85.44 C524.34,96.24 512.94,105.6 494.82,105.6 C480.54,105.6 470.7,99.96 470.7,89.88 Z M494.82,53.64 C501.54,53.64 507.18,48.24 507.18,39.72 C507.18,31.2 501.66,26.16 494.82,26.16 C487.98,26.16 482.46,31.2 482.46,39.72 C482.46,48.24 488.1,53.64 494.82,53.64 Z" id="Egg" fill="#2A87B8"></path>
        </g>
        <g id="Group-Copy" transform="translate(3.000000, 55.000000)">
            <path d="M200.832372,237.64992 C200.832372,245.616895 178.59527,252.075877 151.16521,252.075877 C123.735151,252.075877 101.498049,245.616895 101.498049,237.64992 C101.498049,229.681021 123.735151,223.223962 151.16521,223.223962 C178.59527,223.223962 200.832372,229.681021 200.832372,237.64992" id="Fill-8" fill="#C7D7D4"></path>
            <g id="Fill-47" transform="translate(3.007190, 2.644982)">
                <mask id="mask-2" fill="white">
                    <use xlink:href="#path-1"></use>
                </mask>
                <use id="Mask" fill="#FFF1E0" transform="translate(124.064769, 131.847009) rotate(-33.000000) translate(-124.064769, -131.847009) " xlink:href="#path-1"></use>
                <path d="M151.941652,230.742677 C133.283799,205.856961 117.99281,178.768073 117.99281,139.191273 C117.99281,106.944955 130.468579,70.7725417 141.205115,47.1040969 C164.562695,57.3869881 221.222402,88.0827135 311.184235,139.191273 C246.787093,189.36097 193.706232,219.878105 151.941652,230.742677 Z" fill-opacity="0.1" fill="#000000" mask="url(#mask-2)"></path>
            </g>
            <path d="M128.333797,32.1868943 C108.376436,32.1868943 88.1052252,45.3612553 72.7208243,68.3319952 C57.6233164,90.8738034 48.9664621,119.712638 48.9664621,147.454138 C48.9664621,200.061179 81.6029571,236.80313 128.333797,236.80313 C174.290603,236.80313 205.167231,200.895961 205.167231,147.454138 C205.167231,119.464511 196.962859,90.6133668 182.658639,68.2989117 C167.728646,45.0115701 148.435567,32.1868943 128.333797,32.1868943 Z M128.333797,240.775077 C105.557567,240.775077 84.7067937,232.006019 69.6246895,216.085533 C61.8458435,207.874278 55.7825796,197.991535 51.6062635,186.714284 C47.2162217,174.861918 44.9903935,161.653511 44.9903935,147.454138 C44.9903935,133.116468 47.2027435,118.582412 51.5677544,104.255513 C55.7652505,90.4766087 61.9382654,77.2907069 69.4167402,66.1238621 C77.1955862,54.511159 86.0892718,45.3087448 95.8551894,38.7726322 C106.321973,31.7673875 117.248941,28.2157168 128.333797,28.2157168 C139.412876,28.2157168 150.212764,31.7718114 160.435015,38.7853271 C169.93907,45.3056673 178.542012,54.5150059 186.005083,66.1569456 C193.131199,77.27128 198.996141,90.4560277 202.970284,104.285904 C207.065731,118.542597 209.143299,133.06665 209.143299,147.454138 C209.143299,175.494736 201.071784,199.21678 185.804836,216.054757 C178.563192,224.040967 169.91404,230.226817 160.094209,234.44112 C150.307112,238.643882 139.622751,240.775077 128.333797,240.775077 L128.333797,240.775077 Z" id="Fill-48" fill="#3C3020" transform="translate(127.066846, 134.495397) rotate(-33.000000) translate(-127.066846, -134.495397) "></path>
        </g>
        <g id="Group" transform="translate(134.000000, 38.000000)">
            <path d="M175.312369,278.238885 C175.312369,288.85161 145.721264,297.455552 109.219847,297.455552 C72.7184289,297.455552 43.1273244,288.85161 43.1273244,278.238885 C43.1273244,267.623599 72.7184289,259.022219 109.219847,259.022219 C145.721264,259.022219 175.312369,267.623599 175.312369,278.238885" id="Fill-8" fill="#C7D7D4"></path>
            <path d="M215.79548,158.836255 C215.79548,235.565074 169.765158,280.501328 110.905789,280.501328 C52.04642,280.501328 2.64421333,235.565074 2.64421333,158.836255 C2.64421333,82.1089733 52.04642,2.644982 110.905789,2.644982 C169.765158,2.644982 215.79548,82.1089733 215.79548,158.836255" id="Fill-47" fill="#FFF1E0"></path>
            <path d="M110.905789,5.289964 C84.3483556,5.289964 57.37328,22.8393927 36.9011244,53.4384753 C16.81074,83.4661824 5.29098889,121.882093 5.29098889,158.836255 C5.29098889,228.913545 48.7206556,277.857114 110.905789,277.857114 C172.060909,277.857114 213.148704,230.02555 213.148704,158.836255 C213.148704,121.551566 202.231076,83.1192576 183.196327,53.3944051 C163.328856,22.3735807 137.655389,5.289964 110.905789,5.289964 Z M110.905789,283.148103 C80.5972622,283.148103 52.8509578,271.466932 32.7810711,250.259419 C22.4296933,239.321292 14.3612556,226.156594 8.80379556,211.134285 C2.96192889,195.345872 -7.10542736e-14,177.751092 -7.10542736e-14,158.836255 C-7.10542736e-14,139.737194 2.94399333,120.376531 8.75255111,101.291819 C14.3381956,82.9370836 22.55268,65.3722816 32.5043511,50.4970442 C42.8557289,35.0278838 54.6906333,22.769444 67.6862244,14.0627567 C81.6144644,4.73114333 96.1550756,2.84217094e-14 110.905789,2.84217094e-14 C125.648816,2.84217094e-14 140.02032,4.73703644 153.623158,14.0796673 C166.270287,22.7653444 177.718296,35.0330082 187.649469,50.5411144 C197.132253,65.3464031 204.936782,82.9096678 210.225209,101.332302 C215.675056,120.323493 218.439693,139.670833 218.439693,158.836255 C218.439693,196.188843 207.698858,227.78873 187.382998,250.218423 C177.74648,260.85677 166.236978,269.096876 153.169644,274.710705 C140.145869,280.309161 125.928098,283.148103 110.905789,283.148103 L110.905789,283.148103 Z" id="Fill-48" fill="#3C3020"></path>
            <path d="M127.916382,146.271374 C127.555109,145.782245 127.024729,145.462992 126.425169,145.372802 C126.309869,145.355379 126.194569,145.346668 126.079269,145.346668 C124.967264,145.346668 123.998744,146.179646 123.8322,147.28422 C123.801453,147.494578 122.991791,152.435568 117.493262,152.435568 C111.556593,152.435568 111.190196,148.409292 111.177384,147.608341 C111.177384,147.589381 111.174822,147.570933 111.174822,147.551972 C111.174822,147.517638 111.17226,147.484073 111.169698,147.449996 C111.164573,147.405926 111.162011,147.362112 111.154324,147.318298 C111.151762,147.291394 111.146638,147.264747 111.144076,147.2381 C111.133827,147.18788 111.123578,147.138173 111.113329,147.089235 C111.108204,147.071043 111.10308,147.052851 111.097956,147.034916 C111.082582,146.978547 111.064647,146.922947 111.046711,146.868371 C111.041587,146.858379 111.039024,146.848386 111.036462,146.838137 C111.013402,146.777412 110.98778,146.717713 110.959596,146.659038 C110.957033,146.654938 110.957033,146.650839 110.954471,146.646739 C110.923724,146.583708 110.890416,146.522728 110.854544,146.463284 C110.854544,146.462259 110.854544,146.46149 110.854544,146.460722 C110.454838,145.795569 109.729729,145.34718 108.902131,145.34718 C108.622849,145.34718 108.356378,145.400218 108.110404,145.492202 C108.10528,145.494252 108.100156,145.496045 108.095031,145.498351 C108.043787,145.517824 107.992542,145.539347 107.941298,145.562663 C107.923362,145.570606 107.907989,145.579061 107.890053,145.588029 C107.849058,145.607758 107.810624,145.628256 107.772191,145.650291 C107.744007,145.666177 107.715822,145.6836 107.6902,145.700767 C107.662016,145.718446 107.633831,145.735869 107.605647,145.754573 C107.567213,145.781477 107.52878,145.810686 107.492909,145.840152 C107.477536,145.852194 107.4596,145.863724 107.446789,145.876023 C107.282807,146.012333 107.13676,146.171447 107.016336,146.349521 C107.013773,146.354646 107.011211,146.359514 107.006087,146.364638 C106.972778,146.416652 106.939469,146.470202 106.908722,146.525802 C106.898473,146.545788 106.888224,146.566542 106.877976,146.586783 C106.857478,146.627266 106.83698,146.668262 106.819044,146.710026 C106.806233,146.739492 106.793422,146.768957 106.783173,146.798423 C106.770362,146.833269 106.754989,146.868371 106.74474,146.90373 C106.731929,146.938064 106.72168,146.97291 106.711431,147.007756 C106.703744,147.041578 106.693496,147.075399 106.685809,147.109733 C106.678122,147.144835 106.670436,147.179938 106.665311,147.215809 C106.660187,147.232207 106.657624,147.248349 106.655062,147.265003 C106.6525,147.279096 106.409089,148.660902 105.489251,149.968916 C104.336251,151.605664 102.59394,152.435568 100.311,152.435568 C94.3743311,152.435568 94.0079333,148.409292 93.9951222,147.608341 C93.9874356,146.36182 92.9676711,145.34718 91.7198689,145.34718 C90.46438,145.34718 89.4446156,146.368226 89.4446156,147.623202 C89.4446156,147.869944 89.4830489,150.096515 90.8461511,152.347171 C92.1298244,154.464079 94.8124711,156.987868 100.311,156.987868 C104.297818,156.987868 106.977902,155.319349 108.684342,153.287507 C110.152496,155.144862 112.794147,156.987868 117.493262,156.987868 C124.995449,156.987868 127.865138,151.083996 128.334024,147.962184 C128.426264,147.36083 128.275093,146.760502 127.916382,146.271374" id="Fill-49" fill="#3C3020"></path>
        </g>
    </g>
</svg>